<svg width="316" height="85" viewBox="0 0 316 85" fill="none" xmlns="http://www.w3.org/2000/svg">
<path fill-rule="evenodd" clip-rule="evenodd" d="M81.3579 16.9707L65.7749 21.5934L70.5921 6.638L57.2586 15.6581L57.0244 0L46.4133 13.6296V13.8196C53.7408 14.3455 60.3257 17.4214 65.2269 22.1193C70.1281 26.826 73.3322 33.1635 73.889 40.2169H74.0614L88.2699 29.9903L71.9621 29.7694L81.3623 16.9751L81.3579 16.9707Z" fill="#FFCA05"/>
<path fill-rule="evenodd" clip-rule="evenodd" d="M46.4133 79.2985C50.4173 79.0731 54.2667 78.2643 57.8553 76.9517L54.5318 69.2531C51.973 70.1723 49.2506 70.7557 46.4133 70.9634V79.2985Z" fill="#FFCA05"/>
<path fill-rule="evenodd" clip-rule="evenodd" d="M59.9203 76.1338L56.5969 68.4351C59.4961 67.1535 62.1433 65.4476 64.4503 63.3837L70.5933 69.2792C67.482 72.0944 63.8802 74.4279 59.9248 76.1338H59.9203Z" fill="#FFCA05"/>
<path fill-rule="evenodd" clip-rule="evenodd" d="M72.1655 67.7675C75.1 64.7799 77.5263 61.3239 79.3029 57.5276L71.2595 54.3324C69.9381 57.1166 68.1615 59.6534 66.0181 61.8719L72.1655 67.7675Z" fill="#FFCA05"/>
<path fill-rule="evenodd" clip-rule="evenodd" d="M80.1608 55.5479L72.1174 52.3526C73.0676 49.8954 73.6687 47.288 73.8896 44.57H82.6003C82.3617 48.4149 81.5264 52.1052 80.1608 55.5479Z" fill="#FFCA05"/>
<path fill-rule="evenodd" clip-rule="evenodd" d="M41.8795 5.48436C37.8755 5.70091 34.0262 6.51851 30.442 7.83108L33.7654 15.5253C36.3155 14.6105 39.0423 14.0227 41.8795 13.8194V5.48436Z" fill="#FFCA05"/>
<path fill-rule="evenodd" clip-rule="evenodd" d="M28.381 8.64884L31.7 16.3475C28.8053 17.6247 26.1536 19.3439 23.8511 21.3945L17.7169 15.499C20.8238 12.6794 24.4256 10.3503 28.381 8.64442V8.64884Z" fill="#FFCA05"/>
<path fill-rule="evenodd" clip-rule="evenodd" d="M16.1348 17.0151C13.2003 20.0026 10.774 23.4586 8.98853 27.2593L17.0319 30.4546C18.3666 27.6748 20.1388 25.1292 22.2822 22.915L16.1348 17.0195V17.0151Z" fill="#FFCA05"/>
<path fill-rule="evenodd" clip-rule="evenodd" d="M8.13475 29.2348L16.1781 32.4345C15.228 34.8873 14.6181 37.4992 14.4059 40.2171H5.6908C5.92503 36.3722 6.77356 32.682 8.13475 29.2348Z" fill="#FFCA05"/>
<path fill-rule="evenodd" clip-rule="evenodd" d="M0 54.7568L16.321 54.9998L6.90317 67.7853L22.4994 63.1758L17.6557 78.1312L31.0024 69.12L31.2145 84.7736L41.8786 71.1176V70.9673C34.5556 70.437 27.9662 67.3654 23.0783 62.6632C18.1727 57.952 14.9598 51.6146 14.4118 44.5744H14.1952L0 54.7568Z" fill="#FFCA05"/>
<path fill-rule="evenodd" clip-rule="evenodd" d="M52.9648 16.6691L49.1806 25.6231C48.0366 25.2373 46.8448 24.9579 45.6051 24.8115V15.0947C48.1758 15.2898 50.6421 15.8353 52.9605 16.6691M62.1993 22.1994C60.081 20.2791 57.6495 18.6869 55.0005 17.4895L51.2032 26.448C52.6517 27.1443 53.987 28.0268 55.1832 29.069L62.1993 22.1994ZM68.5847 30.7543L59.385 34.4841C58.676 33.0693 57.7843 31.7566 56.7317 30.5858L63.7565 23.7117C65.7139 25.7828 67.3537 28.1599 68.5847 30.7543ZM71.051 39.9523C70.8422 37.4377 70.2898 35.0163 69.4242 32.7411L60.2289 36.4709C60.6204 37.5885 60.8987 38.7504 61.0423 39.9567H71.051V39.9523ZM69.4242 51.5363L60.2289 47.8065C60.6204 46.6933 60.8987 45.5225 61.0423 44.3251H71.051C70.8422 46.8353 70.2898 49.2567 69.4242 51.5363ZM63.7565 60.5613C65.7139 58.4902 67.3537 56.1131 68.5847 53.5142L59.385 49.7845C58.676 51.2036 57.7843 52.5164 56.7317 53.6872L63.7565 60.5613ZM54.9962 66.7835L51.1989 57.8294C52.6473 57.1331 53.9827 56.2506 55.1789 55.2084L62.195 62.078C60.0766 63.9939 57.6451 65.586 54.9962 66.7835ZM45.6051 69.1827C48.1758 68.9787 50.6421 68.4421 52.9605 67.6039L49.1762 58.6498C48.0323 59.0312 46.8404 59.3151 45.6008 59.4614V69.1783L45.6051 69.1827ZM33.7825 67.6083L37.5712 58.6543C38.7151 59.0357 39.907 59.3195 41.1379 59.4659V69.1827C38.5759 68.9787 36.1053 68.4421 33.7782 67.6039L33.7825 67.6083ZM24.5481 62.078C26.6751 63.9939 29.0979 65.586 31.7556 66.7835L35.5485 57.8294C34.0957 57.1331 32.7647 56.2506 31.5685 55.2084L24.5481 62.078ZM18.1714 53.5187L27.358 49.7933C28.067 51.2081 28.963 52.5208 30.0157 53.6916L22.9952 60.5657C21.0291 58.4902 19.398 56.1175 18.1714 53.5187ZM15.7051 44.3251C15.9095 46.8353 16.4663 49.2567 17.3275 51.5318L26.5272 47.8065C26.1357 46.6933 25.8573 45.5225 25.7051 44.3251H15.7051ZM17.3275 32.7411L26.5272 36.4709C26.1357 37.5885 25.8573 38.7504 25.7051 39.9523H15.7051C15.9095 37.4377 16.4663 35.0163 17.3275 32.7411ZM22.9996 23.7117C21.0335 25.7828 19.4023 28.1599 18.1757 30.7543L27.3623 34.4841C28.0714 33.0693 28.9674 31.7566 30.02 30.5858L22.9996 23.7117ZM31.7556 17.4895L35.5485 26.448C34.0957 27.1487 32.7647 28.0268 31.5685 29.069L24.5481 22.1994C26.6707 20.2791 29.0979 18.6869 31.7556 17.4895ZM41.1423 15.0947C38.5803 15.2898 36.1096 15.8353 33.7825 16.6691L37.5712 25.6231C38.7151 25.2373 39.907 24.9579 41.1379 24.8115V15.0947H41.1423Z" fill="#F48120"/>
<path fill-rule="evenodd" clip-rule="evenodd" d="M49.0647 27.1222L46.1874 34.3544V26.4244C47.1749 26.563 48.1368 26.7987 49.0647 27.1268M54.4278 30.3201C53.4105 29.3958 52.2656 28.6056 51.0482 27.9725L47.0557 37.9959L54.4278 30.3201ZM58.2203 35.4219C57.6116 34.1464 56.8412 32.968 55.9516 31.9051L48.5795 39.5856L58.2203 35.4265V35.4219ZM59.7313 40.4914H52.0868L59.0461 37.4922C59.361 38.4534 59.5866 39.4608 59.7313 40.4914ZM59.0461 48.0517L52.0868 45.0479H59.7313C59.5866 46.0831 59.361 47.0859 59.0461 48.0517ZM55.9516 53.6388C56.8455 52.5759 57.6116 51.3928 58.2203 50.122L48.5795 45.9583L55.9516 53.6388ZM51.0525 57.5668C52.2698 56.9337 53.4105 56.1435 54.4321 55.2146L47.0684 47.5341L51.0567 57.5622L51.0525 57.5668ZM46.1874 59.1195V51.1849L49.0647 58.4171C48.1368 58.736 47.1834 58.9809 46.1874 59.1195ZM38.9472 58.4171L41.8203 51.1849V59.1195C40.8285 58.9809 39.8666 58.736 38.9472 58.4171ZM33.5841 55.2146C34.6013 56.1435 35.7336 56.9337 36.9637 57.5668L40.9434 47.5387L33.5841 55.2192V55.2146ZM29.7916 50.1174C30.4002 51.3882 31.1621 52.5713 32.0603 53.6341L39.4239 45.9537L29.7916 50.1174ZM28.2848 45.0479H35.9208L28.9658 48.0517C28.6551 47.0859 28.421 46.0831 28.2848 45.0479ZM28.9658 37.4922L35.9208 40.4914H28.2848C28.421 39.4608 28.6551 38.4488 28.9658 37.4922ZM32.0603 31.9005C31.1664 32.9634 30.4002 34.1418 29.7916 35.4173L39.4239 39.5764L32.0603 31.8959V31.9005ZM36.9637 27.9771C35.7336 28.6056 34.6013 29.3958 33.5841 30.3247L40.9434 38.0005L36.9637 27.9771ZM41.8203 26.4197V34.3498L38.9472 27.1175C39.8666 26.7941 40.8285 26.5584 41.8203 26.4151V26.4197Z" fill="#C94235"/>
<g clip-path="url(#clip0_627_16526)">
<path fill-rule="evenodd" clip-rule="evenodd" d="M109.073 29.8565H103.333L106.41 22.7974L109.073 29.8565ZM115.486 38.4763C114.645 37.3642 113.583 35.245 112.318 32.1188C111.189 29.2933 109.891 25.5704 108.424 20.9598H104.91C105.016 21.1078 105.064 21.2557 105.064 21.4085L105.117 21.7998C105.117 22.0767 104.862 22.9358 104.343 24.3676L103.454 26.6539L102.343 29.2169C101.463 31.1929 100.545 33.0161 99.5934 34.6914C99.1319 35.5266 98.6848 36.2378 98.281 36.8344C97.8628 37.431 97.4446 37.9799 97.0167 38.481H100.646L100.492 38.0324V37.641C100.492 37.2162 100.603 36.696 100.795 36.0851C100.988 35.4741 101.286 34.7009 101.675 33.7702L102.867 30.8922H109.511L112.376 38.481H115.486V38.4763Z" fill="#231F20"/>
<path fill-rule="evenodd" clip-rule="evenodd" d="M135.441 29.7753C135.441 32.2143 134.806 34.0995 133.532 35.455C132.263 36.801 130.475 37.474 128.163 37.474C127.009 37.474 126.168 37.4071 125.644 37.2496C125.168 37.073 124.908 36.7533 124.846 36.3094L124.754 34.6627V24.0622L124.846 22.6399L124.903 22.0814L125.552 21.9717L126.283 21.8857L127.754 21.8046C130.206 21.8046 132.105 22.5014 133.436 23.8951C134.768 25.2936 135.436 27.2552 135.436 29.7849M138.34 28.9114C138.34 26.3436 137.58 24.3247 136.071 22.8451C134.552 21.3703 132.533 20.6305 129.97 20.6305L127.014 20.7975L124.702 20.9359L123.682 20.9598H121.61C121.86 21.2032 122.043 21.8142 122.163 22.7926C122.288 23.7758 122.351 25.9666 122.351 29.3887V30.5103C122.351 33.7177 122.274 35.7891 122.134 36.7342C122.009 37.6792 121.827 38.2758 121.615 38.5383H125.764L128.427 38.6242C131.513 38.6242 133.931 37.7556 135.696 36.0182C137.455 34.2809 138.345 31.9136 138.345 28.921L138.34 28.9114Z" fill="#231F20"/>
<path fill-rule="evenodd" clip-rule="evenodd" d="M149.787 38.4762C149.647 38.3473 149.537 38.1707 149.464 37.9512C149.392 37.7268 149.32 37.3498 149.248 36.82C149.181 36.2902 149.138 35.8511 149.114 35.5075C149.094 35.1686 149.08 34.7915 149.08 34.3811V28.6297C149.08 27.3697 149.094 26.2672 149.128 25.3412C149.157 24.4105 149.19 23.5609 149.234 22.802C149.368 21.8522 149.546 21.2413 149.787 20.9597H145.926C146.176 21.2031 146.364 21.8141 146.479 22.7925C146.599 23.7662 146.662 25.9569 146.662 29.36V30.4768C146.662 33.6747 146.59 35.7461 146.455 36.6816C146.321 37.6171 146.143 38.2232 145.931 38.481H149.791L149.787 38.4762Z" fill="#231F20"/>
<path fill-rule="evenodd" clip-rule="evenodd" d="M171.882 20.9547H157.489L156.821 23.1025L157.373 22.8209C157.527 22.7254 157.792 22.6395 158.162 22.5584C158.537 22.4677 159.022 22.4295 159.618 22.4295H162.604L162.777 25.7514V30.7677C162.777 33.7794 162.724 35.7506 162.604 36.6813C162.527 37.5929 162.354 38.1943 162.075 38.4664H165.94C165.762 38.2993 165.628 38.0893 165.522 37.8411C165.43 37.5929 165.382 37.3066 165.382 36.9963C165.339 36.7338 165.301 36.3758 165.272 35.9129C165.253 35.4451 165.233 34.9153 165.233 34.3283V26.1285L165.382 22.4295L168.839 22.3436C169.55 22.3436 170.18 22.2386 170.709 22.0381C171.199 21.7613 171.584 21.3938 171.877 20.9451" fill="#231F20"/>
<path fill-rule="evenodd" clip-rule="evenodd" d="M190.908 20.955H187.278C187.461 21.1459 187.567 21.3272 187.629 21.5182C187.73 21.6613 187.769 21.857 187.769 22.1052C187.769 22.6255 187.307 23.7423 186.365 25.451L186.197 25.7612L183.793 30.0282L182.303 25.9283L181.543 24.1862L180.812 22.5873C180.457 21.8523 180.139 21.4084 179.846 21.2366C179.649 21.0504 179.442 20.955 179.231 20.955H176.217C176.582 21.2509 177 21.6995 177.462 22.2961C177.918 22.8927 178.332 23.5275 178.726 24.1957C179.962 26.2194 180.808 27.9997 181.284 29.5318C181.769 31.0687 182.005 32.6819 182.005 34.3763V35.7366L181.841 36.8534C181.697 37.5455 181.509 38.0848 181.279 38.4714H184.99C184.75 38.0228 184.61 37.598 184.548 37.1923C184.471 36.8773 184.437 36.5957 184.437 36.3523V35.6841C184.437 33.8274 184.519 32.4433 184.701 31.5507L185.067 30.1809L185.634 28.9543L187.543 25.871L189.057 23.5848L190.903 20.955H190.908Z" fill="#231F20"/>
<path fill-rule="evenodd" clip-rule="evenodd" d="M205.016 29.8561H199.281L202.353 22.797L205.016 29.8561ZM211.429 38.476C210.588 37.3639 209.535 35.2447 208.261 32.1185C207.131 29.2929 205.838 25.5701 204.367 20.9595H200.863C200.959 21.1074 201.012 21.2554 201.012 21.4081L201.069 21.7995C201.069 22.0763 200.805 22.9355 200.286 24.3673L199.401 26.6535L198.286 29.2166C197.406 31.1925 196.488 33.0158 195.536 34.6911C195.065 35.5263 194.632 36.2375 194.219 36.8341C193.806 37.4307 193.387 37.9796 192.959 38.4807H196.589L196.44 38.0321V37.6407C196.44 37.2159 196.536 36.6957 196.733 36.0847C196.925 35.4738 197.224 34.7006 197.608 33.7699L198.81 30.8918H205.454L208.323 38.4807H211.424L211.429 38.476Z" fill="#231F20"/>
<path fill-rule="evenodd" clip-rule="evenodd" d="M237.837 33.4839C237.837 34.806 237.452 35.8321 236.688 36.5529C235.923 37.2783 234.88 37.6458 233.558 37.6458C232.986 37.6458 232.467 37.579 231.996 37.4454C231.587 37.2783 231.347 37.1351 231.284 37.0063L231.169 36.3572L231.111 35.4408V29.3888H232.895C234.476 29.3888 235.693 29.742 236.548 30.4627C237.399 31.1786 237.832 32.1857 237.832 33.4839M237.135 24.6445C237.135 25.8521 236.688 26.7732 235.779 27.4176C234.866 28.0571 233.568 28.3817 231.866 28.3817H231.107V23.795L231.198 22.6972L231.313 21.9335L232.169 21.881H232.972C234.289 21.881 235.308 22.1197 236.048 22.6065C236.77 23.0886 237.135 23.7711 237.135 24.6445ZM240.764 33.2596C240.764 31.9423 240.293 30.8684 239.356 30.0379C238.423 29.2074 237.12 28.711 235.438 28.544C236.919 28.0094 238.034 27.3603 238.755 26.6062C239.49 25.8521 239.856 25.012 239.856 24.0813C239.856 23.0217 239.486 22.1913 238.745 21.5994C237.981 21.041 236.89 20.7594 235.472 20.7594L232.981 20.8453L230.352 20.9551H227.958C228.198 21.1985 228.386 21.8094 228.506 22.7879C228.621 23.7615 228.679 25.9523 228.679 29.3554V30.4722C228.679 33.6653 228.607 35.7415 228.472 36.6769C228.338 37.6124 228.165 38.2186 227.953 38.4763H229.876L231.78 38.5622L233.856 38.6481C235.952 38.6481 237.616 38.1422 238.875 37.1447C240.135 36.1424 240.764 34.8489 240.764 33.2643V33.2596Z" fill="#231F20"/>
<path fill-rule="evenodd" clip-rule="evenodd" d="M251.921 38.4762C251.772 38.3473 251.671 38.1707 251.598 37.9512C251.526 37.7268 251.459 37.3498 251.382 36.82C251.31 36.2902 251.267 35.8511 251.248 35.5075C251.228 35.1686 251.224 34.7915 251.224 34.3811V28.6297C251.224 27.3697 251.238 26.2672 251.267 25.3412C251.291 24.4105 251.324 23.5609 251.368 22.802C251.502 21.8522 251.68 21.2413 251.921 20.9597H248.06C248.301 21.2031 248.488 21.8141 248.613 22.7925C248.729 23.7662 248.791 25.9569 248.791 29.36V30.4768C248.791 33.6747 248.719 35.7461 248.58 36.6816C248.45 37.6171 248.272 38.2232 248.06 38.481H251.921V38.4762Z" fill="#231F20"/>
<path fill-rule="evenodd" clip-rule="evenodd" d="M268.718 25.0597C268.718 26.3818 268.357 27.3793 267.626 28.0571C266.896 28.7396 265.838 29.0785 264.454 29.0785L263.809 29.0546L263.31 28.9687V22.8117L263.459 21.9144L264.18 21.8571H265.305C266.453 21.8571 267.309 22.1244 267.872 22.6685C268.444 23.2078 268.718 24.0049 268.718 25.0645M274.597 38.4763L273.837 37.8319L273.02 37.0826C272.785 36.8582 272.506 36.5385 272.179 36.1328C271.842 35.7223 271.525 35.3023 271.213 34.868L267.136 29.4364C268.535 28.8637 269.607 28.143 270.333 27.2791C271.064 26.4152 271.429 25.4033 271.429 24.2531C271.429 23.1028 271.059 22.2151 270.318 21.6614C269.655 21.0839 268.569 20.7975 267.074 20.7975L264.612 20.9407H260.079C260.348 21.1841 260.555 21.7855 260.675 22.7687C260.805 23.7472 260.867 25.9427 260.867 29.3457V30.4626C260.867 33.6652 260.791 35.7366 260.641 36.6769C260.492 37.6171 260.315 38.2233 260.079 38.481H263.939C263.713 38.209 263.564 37.8271 263.502 37.3546C263.444 36.8821 263.396 36.4526 263.348 36.0707C263.314 35.6889 263.3 35.3023 263.3 34.9109V30.033H263.507C263.93 30.033 264.3 30.0999 264.627 30.2335C264.939 30.3719 265.29 30.7012 265.655 31.2024L270.468 37.7794C270.684 38.104 270.891 38.2853 271.083 38.3426C271.251 38.4333 271.515 38.4763 271.905 38.4763H274.597Z" fill="#231F20"/>
<path fill-rule="evenodd" clip-rule="evenodd" d="M290.201 35.5791C289.692 36.3046 289.043 36.8153 288.254 37.0969C287.466 37.3833 286.327 37.5312 284.846 37.5312H283.356C283.26 37.2114 283.216 36.8869 283.216 36.548L283.096 35.77V28.9687L283.188 25.5799L283.245 22.8976C283.385 21.8905 283.567 21.2462 283.798 20.9646H279.938C280.193 21.208 280.38 21.8189 280.495 22.7974C280.611 23.7758 280.669 25.9713 280.669 29.3935V30.5103C280.669 33.7177 280.596 35.7891 280.462 36.7342C280.327 37.6792 280.154 38.2758 279.938 38.5383H288.274L288.947 38.481L289.591 38.3665L290.206 35.5839L290.201 35.5791Z" fill="#231F20"/>
<path fill-rule="evenodd" clip-rule="evenodd" d="M306.825 29.8564H301.095L304.167 22.7973L306.825 29.8564ZM313.228 38.4762C312.397 37.3641 311.339 35.2449 310.075 32.1187C308.936 29.2932 307.647 25.5703 306.181 20.9597H302.672C302.768 21.1077 302.816 21.2556 302.816 21.4084L302.869 21.7997C302.869 22.0766 302.614 22.9357 302.085 24.3676L301.206 26.6538L300.095 29.2168C299.215 31.1928 298.297 33.016 297.345 34.6913C296.879 35.5265 296.437 36.2377 296.028 36.8343C295.624 37.4309 295.201 37.9798 294.764 38.481H298.398L298.249 38.0323V37.6409C298.249 37.2161 298.35 36.6959 298.547 36.085C298.739 35.474 299.037 34.7008 299.422 33.7701L300.619 30.8921H307.267L310.128 38.481H313.228V38.4762Z" fill="#231F20"/>
</g>
<g clip-path="url(#clip1_627_16526)">
<path d="M316 44.192H97.0167V64.9815H316V44.192Z" fill="#9D2E33"/>
<path fill-rule="evenodd" clip-rule="evenodd" d="M102.308 49.0103L103.042 53.8489C103.331 55.7417 103.534 57.3648 103.66 58.7131C103.737 58.3824 103.839 57.726 103.969 56.7542C104.201 54.9581 104.553 52.3785 105.012 49.0052H106.794L108.016 58.5045C108.547 54.5613 109.011 51.3864 109.402 48.9797H110.701C110.687 49.1324 110.387 50.9946 109.803 54.5765C109.624 55.7315 109.305 57.5937 108.876 60.1479H107.069L106.398 55.4313C106.166 53.6505 105.988 52.058 105.862 50.6893C105.635 53.0094 105.215 56.164 104.577 60.1428H102.771L100.965 49.0052H102.308V49.0103Z" fill="white"/>
<path fill-rule="evenodd" clip-rule="evenodd" d="M125.136 48.8428C126.228 48.8428 126.967 49.2041 127.344 49.9215C127.609 50.4252 127.735 51.2851 127.735 52.4858C127.735 53.7884 127.735 54.8365 127.73 55.6404C127.706 57.1871 127.599 58.2251 127.406 58.7695C127.039 59.8075 126.242 60.3264 125.011 60.3264C123.842 60.3264 123.069 59.9601 122.683 59.2325C122.413 58.7339 122.282 57.8333 122.282 56.541C122.282 54.9637 122.297 53.7019 122.316 52.7555C122.335 51.4021 122.48 50.4761 122.741 49.9775C123.142 49.2244 123.944 48.8428 125.136 48.8428ZM125.011 59.1766C125.301 59.1766 125.552 59.0951 125.774 58.9222C126.213 58.5762 126.426 57.2635 126.426 54.9739V52.3688C126.426 50.7661 125.982 49.9622 125.069 49.9622C124.113 49.9622 123.63 50.9951 123.63 53.0404V56.7241C123.63 58.3625 124.093 59.1715 125.011 59.1715V59.1766Z" fill="white"/>
<path fill-rule="evenodd" clip-rule="evenodd" d="M139.996 49.0259H143.015C144.565 49.0259 145.328 50.0231 145.328 52.0074C145.328 52.8266 145.26 53.4524 145.111 53.9053C144.884 54.6023 144.459 55.0195 143.84 55.1569L145.782 60.1686H144.376L142.522 55.2994H141.344V60.1686H139.996V49.0259ZM141.894 54.2309C142.73 54.2309 143.29 54.124 143.551 53.9053C143.86 53.661 144.014 53.1166 144.014 52.2822C144.014 51.5546 143.918 51.0407 143.715 50.7507C143.541 50.481 143.251 50.3284 142.85 50.2979C142.845 50.2979 142.338 50.2826 141.339 50.2521V54.2258H141.889L141.894 54.2309Z" fill="white"/>
<path fill-rule="evenodd" clip-rule="evenodd" d="M157.65 49.0259H159.031V58.9424H162.31V60.1838H157.65V49.0259Z" fill="white"/>
<path fill-rule="evenodd" clip-rule="evenodd" d="M173.929 49.0561H176.769C177.827 49.0561 178.556 49.4632 178.952 50.2722C179.227 50.842 179.372 51.7273 179.372 52.923C179.372 54.6377 179.338 56.1539 179.276 57.4818C179.194 59.283 178.397 60.1887 176.9 60.1887H173.929V49.0561ZM176.46 58.993C176.977 58.993 177.363 58.8302 177.624 58.4842C177.822 58.2196 177.948 57.6955 177.991 56.9222C177.991 56.8458 177.996 56.2862 177.996 55.2279C177.996 55.1363 177.996 54.9226 178.001 54.597C178.006 54.2713 178.006 54.0576 178.006 53.966C178.006 52.3481 177.923 51.361 177.745 51.0048C177.61 50.7199 177.426 50.5316 177.214 50.4401C177.049 50.3637 176.793 50.3332 176.45 50.3332H175.258V58.9421C175.721 58.9777 176.117 58.993 176.45 58.993H176.46Z" fill="white"/>
<path fill-rule="evenodd" clip-rule="evenodd" d="M203.477 49.0002H204.806L207.138 60.153H205.728L205.303 58.0313H202.811L202.439 60.153H201.019L203.477 49.0002ZM205.124 56.8102L204.105 51.071L203.052 56.8102H205.124Z" fill="white"/>
<path fill-rule="evenodd" clip-rule="evenodd" d="M222.332 52.5311C222.332 52.4294 222.347 52.3073 222.347 52.1648C222.347 51.5186 222.303 51.0658 222.211 50.7809C222.057 50.267 221.728 50.0177 221.246 50.0177C220.685 50.0177 220.304 50.2212 220.101 50.6181C219.888 51.0556 219.787 52.1394 219.787 53.8795C219.787 55.2685 219.806 56.4235 219.845 57.3342C219.864 57.9091 219.961 58.3264 220.115 58.6011C220.309 58.9675 220.671 59.1506 221.188 59.1506C221.999 59.1506 222.4 58.4179 222.4 56.9373V56.2148C222.728 56.1996 222.917 56.1996 222.96 56.1996C223.197 56.1996 223.433 56.2148 223.665 56.2657V57.2731C223.665 58.2958 223.506 59.0285 223.187 59.4966C222.805 60.0614 222.129 60.3412 221.173 60.3412C220.048 60.3412 219.275 59.9291 218.84 59.0997C218.546 58.5044 218.391 57.5835 218.391 56.3319C218.391 56.2047 218.396 55.9096 218.406 55.4669C218.411 55.0141 218.415 54.7292 218.415 54.607C218.415 53.0857 218.449 52.0122 218.531 51.3914C218.633 50.5417 218.86 49.9312 219.198 49.5699C219.623 49.0967 220.27 48.8678 221.139 48.8678C222.26 48.8678 222.979 49.229 223.293 49.9464C223.438 50.3026 223.544 51.1726 223.597 52.5362H222.332V52.5311Z" fill="white"/>
<path fill-rule="evenodd" clip-rule="evenodd" d="M237.395 49.0001H238.728L241.056 60.153H239.641L239.216 58.0313H236.724L236.352 60.153H234.937L237.391 49.0001H237.395ZM239.042 56.8102L238.028 51.071L236.97 56.8102H239.042Z" fill="white"/>
<path fill-rule="evenodd" clip-rule="evenodd" d="M252.757 49.0561H255.592C256.654 49.0561 257.379 49.4631 257.77 50.2721C258.045 50.842 258.19 51.7273 258.19 52.9229C258.19 54.6376 258.156 56.1538 258.094 57.4818C258.007 59.2829 257.215 60.1886 255.717 60.1886H252.757V49.0561ZM255.288 58.9929C255.8 58.9929 256.191 58.8301 256.442 58.4841C256.645 58.2195 256.765 57.6955 256.809 56.9221C256.809 56.8458 256.814 56.2861 256.814 55.2278C256.814 55.1362 256.814 54.9225 256.828 54.5969C256.828 54.2713 256.833 54.0576 256.833 53.966C256.833 52.348 256.751 51.3609 256.577 51.0048C256.437 50.7198 256.253 50.5316 256.041 50.44C255.882 50.3637 255.626 50.3331 255.278 50.3331H254.085V58.942C254.544 58.9777 254.945 58.9929 255.283 58.9929H255.288Z" fill="white"/>
<path fill-rule="evenodd" clip-rule="evenodd" d="M270.376 48.9797H275.312V50.267H271.82V53.5131H274.853V54.7648H271.781V58.8708H275.408V60.1275H270.376V48.9797Z" fill="white"/>
<path fill-rule="evenodd" clip-rule="evenodd" d="M287.211 49.0259H289.322L290.288 55.1823C290.365 55.6403 290.476 56.3271 290.621 57.2481C290.737 58.0011 290.809 58.688 290.833 59.3291C290.973 57.996 291.215 56.2763 291.558 54.1647L292.398 49.031H294.494V60.1889H293.248L293.422 49.9468L291.736 60.1889H289.983L288.37 50.1503L288.525 60.1889H287.206V49.031L287.211 49.0259Z" fill="white"/>
<path fill-rule="evenodd" clip-rule="evenodd" d="M307.422 48.9796L308.962 54.4899L310.59 48.9796H312.048C311.71 49.9056 311.121 51.5796 310.262 54.0015C310.044 54.6018 309.861 55.192 309.672 55.7873C309.638 56.1282 309.629 56.5963 309.629 57.1865C309.629 57.4104 309.629 57.9039 309.648 58.6671C309.667 59.4354 309.672 59.9188 309.672 60.1274H308.214C308.214 59.8018 308.214 59.2574 308.219 58.5043V56.8864C308.219 56.1893 308.214 55.823 308.199 55.7823C308.146 55.4668 308.04 55.0852 307.871 54.6324C307.765 54.3881 307.629 54.0116 307.446 53.513L305.925 48.9745H307.422V48.9796Z" fill="white"/>
</g>
<defs>
<clipPath id="clip0_627_16526">
<rect width="216.211" height="18.0176" fill="white" transform="translate(97.0167 20.6305)"/>
</clipPath>
<clipPath id="clip1_627_16526">
<rect width="218.983" height="20.7895" fill="white" transform="translate(97.0167 44.192)"/>
</clipPath>
</defs>
</svg>
