<svg width="86" height="39" viewBox="0 0 86 39" fill="none" xmlns="http://www.w3.org/2000/svg">
<path d="M43.0328 6.57877C40.7743 6.57877 39.7206 7.31985 38.43 8.77175V6.57877H38.3443H35.1885V26.4567H38.4855V20.2256C39.4434 21.2137 40.6835 21.6624 42.1505 21.6624C45.9567 21.6624 48.4472 19.1518 48.4119 13.6518C48.3816 8.75158 46.3601 6.57373 43.0328 6.57373V6.57877ZM41.5859 18.9552C39.64 18.9552 38.43 17.5941 38.43 14.1256C38.43 11.2118 39.5896 8.83225 41.8178 8.83225C43.8495 8.83225 44.9989 10.1682 44.9989 14.05C44.9989 17.5487 43.7285 18.9552 41.5859 18.9552Z" fill="#FFF7E9"/>
<path d="M55.6361 6.12516C51.8299 6.12516 49.7731 7.9602 49.7731 11.5093H52.9289C52.9289 9.64905 53.8011 8.8021 55.5807 8.8021C57.3603 8.8021 58.061 9.73475 58.061 12.2403V12.9158H55.6361C51.1241 12.9158 49.3193 14.6097 49.3193 17.5992C49.3193 20.251 50.7309 21.6877 53.3221 21.6877C55.6613 21.6877 57.1989 21.5113 58.0307 18.9251V21.2693H61.2723V12.4924C61.2723 7.83921 59.4675 6.12012 55.6311 6.12012L55.6361 6.12516ZM54.5926 19.1519C53.2667 19.1519 52.6466 18.5016 52.6466 17.1203C52.6466 15.5121 53.6045 14.6954 56.0293 14.6954H58.0307C57.8896 17.5438 56.3974 19.1519 54.5926 19.1519Z" fill="#FFF7E9"/>
<path d="M67.453 0.483887H65.0836C65.0533 3.98257 64.6903 6.3772 62.0688 6.40745V8.97348H64.1257V16.107C64.1257 19.9686 65.6482 21.5516 69.2275 21.5516C70.1299 21.5516 70.9466 21.4407 71.6222 21.2693V18.4209C71.1432 18.5923 70.6089 18.673 70.0442 18.673C68.1537 18.673 67.4479 18.0227 67.4479 15.4869V8.97348H71.6222V6.12513H67.4479V0.483887H67.453Z" fill="#FFF7E9"/>
<path d="M81.3216 6.18059C79.7134 6.18059 78.3523 6.53852 77.4801 7.41067C76.85 8.02571 76.9155 7.92489 76.3005 8.8172V5.99406C76.3005 5.84282 76.3005 5.6815 76.3005 5.50001V0.483887H73.0034V21.2642H76.3005V15.9356C76.3005 13.3998 76.613 11.3681 77.712 10.2691C78.2766 9.73472 79.0379 9.42216 79.9957 9.42216C81.8005 9.42216 82.7029 10.4103 82.7029 12.9763V21.2642H86V11.7311C86 7.75348 84.1952 6.17555 81.3216 6.17555V6.18059Z" fill="#FFF7E9"/>
<path d="M5.54042 0H3.10546C3.07521 3.59447 2.69711 6.06472 0 6.08992V8.73158H2.11736V16.0718C2.11736 20.0443 3.68521 21.6727 7.36538 21.6727C8.29298 21.6727 9.13489 21.5567 9.83059 21.3803V18.4513C9.33654 18.6277 8.78703 18.7134 8.20728 18.7134C6.26637 18.7134 5.54042 18.048 5.54042 15.4365V8.73662H9.83563V5.80761H5.54042V0Z" fill="#FFF7E9"/>
<path d="M29.9051 11.9027C29.9051 14.4384 29.5925 16.4701 28.4935 17.5691C27.9591 18.1337 27.1676 18.416 26.1795 18.416C24.405 18.416 23.5026 17.4582 23.5026 14.8619V8.97868C21.4659 10.0777 21.0374 10.6827 20.2056 11.6153V16.1021C20.2056 20.0797 22.0104 21.6576 24.889 21.6576C25.1612 21.6576 25.4284 21.6627 25.7006 21.6677C27.087 21.6828 28.5843 21.3703 29.4917 20.2208C29.6883 19.9738 29.8395 19.6965 29.9656 19.4041V21.6627H30.0513H33.2071V6.89158C32.0073 6.88149 30.9133 6.95207 29.9101 7.08315V11.8976L29.9051 11.9027Z" fill="#FFF7E9"/>
<path d="M15.7038 8.65101V5.82786H12.6235V21.6677H15.7038V17.0952C15.7038 13.2285 18.0833 4.62299 33.2073 4.62299V1.84521C27.9139 1.84521 20.0545 2.97951 15.7038 8.65101Z" fill="#FFF7E9"/>
<path d="M14.398 26.3153C14.3577 26.1439 14.3123 25.9877 14.272 25.8213H0L0.0403306 25.9776C0.115951 26.2599 0.196612 26.5472 0.26719 26.8296H4.17422C4.17422 26.8296 4.21455 26.8396 4.22967 26.8548C4.2448 26.8699 4.24984 26.8901 4.24984 26.9102L4.16918 28.0697C4.16918 28.105 4.13893 28.1353 4.0986 28.1403C3.87174 28.1554 3.64488 28.1655 3.43314 28.1756C2.99455 28.2008 2.57612 28.221 2.16777 28.2865C1.21496 28.4428 0.700745 29.0729 0.730992 30.0661C0.76124 31.0996 1.25025 31.891 2.22827 32.4758C2.29885 32.5212 2.37951 32.5615 2.45513 32.6069C2.52066 32.6472 2.59124 32.6825 2.66182 32.7279C2.68199 32.738 2.69711 32.7632 2.69711 32.7884C2.69711 32.8136 2.68703 32.8338 2.6719 32.8539C2.10728 33.3177 1.57794 33.7513 1.02339 34.1949C1.31075 34.4268 1.58802 34.6537 1.86025 34.8806L2.25347 35.1982L2.90885 34.3411C3.25166 33.9025 3.58943 33.4589 3.93728 33.0153C3.9524 32.9951 3.97257 32.985 3.99273 32.985C4.0129 32.985 4.0381 32.9951 4.05323 33.0102C4.59265 33.6001 5.10686 34.1798 5.63116 34.7596L5.96389 35.1326C6.11009 34.9663 6.24116 34.8251 6.37728 34.6739L6.5991 34.4319C6.08488 33.9731 5.60596 33.5396 5.08166 33.0657C5.06149 33.0455 5.05141 33.0203 5.05645 32.9951C5.06653 32.9648 5.0867 32.9447 5.11191 32.9396C5.72695 32.7582 6.42265 32.5061 6.94695 31.9213C6.60918 31.5029 6.27645 31.1046 5.94373 30.7063C5.8681 30.7769 5.79249 30.8475 5.72695 30.908C5.54042 31.0794 5.35893 31.2407 5.16736 31.392C4.65315 31.7953 4.14901 32.002 3.60959 32.0372C2.61645 32.1078 2.46017 31.9767 2.33413 31.0038C2.31397 30.8324 2.2938 30.6458 2.29885 30.4644C2.30893 29.7838 2.62653 29.3956 3.29199 29.2443C3.52893 29.1889 3.78604 29.1839 4.03306 29.1788C4.48678 29.1687 4.9405 29.1738 5.41943 29.1738H5.83282V26.9153C5.83282 26.8749 5.86811 26.8396 5.90844 26.8396H7.98042C8.02075 26.8396 8.05604 26.8749 8.05604 26.9153V27.5001C8.05604 27.984 8.05604 28.4377 8.05604 28.8965C8.03588 29.6023 8.31315 30.1518 8.91307 30.5702C9.51803 31.0038 10.1835 31.1953 10.8893 31.1449C11.106 31.1298 11.3228 31.0996 11.5497 31.0643L11.7866 31.029C11.7866 31.029 11.832 31.029 11.8471 31.0491C11.8622 31.0643 11.8723 31.0844 11.8723 31.1046V31.9515C11.8723 32.2339 11.8723 32.5162 11.8723 32.8035C11.8723 32.8489 11.8723 32.8943 11.8723 32.9447V33.0253C11.9026 33.0253 11.9379 33.0354 11.9732 33.0405C12.5126 33.1514 13.0117 33.2421 13.5158 33.3379V26.885C13.5158 26.8447 13.5511 26.8094 13.5914 26.8094H14.519C14.4737 26.638 14.4333 26.4767 14.393 26.3153H14.398ZM11.8723 28.9822C11.8572 29.2948 11.6051 29.6779 11.2069 29.9753C10.8842 30.2173 10.5364 30.3585 10.2541 30.3585C10.1936 30.3585 10.1331 30.3484 10.0776 30.3383C9.94654 30.298 9.80034 30.1014 9.78522 29.9552C9.72976 29.4258 9.71464 28.8965 9.70456 28.4932C9.70456 28.1554 9.70456 27.8177 9.70456 27.4648V26.9153C9.70456 26.8749 9.73984 26.8396 9.78018 26.8396H11.8068C11.8471 26.8396 11.8824 26.8749 11.8824 26.9153C11.8824 27.132 11.8824 27.3488 11.8824 27.5605C11.8824 28.0496 11.8824 28.5033 11.8723 28.9772V28.9822Z" fill="#FFF7E9"/>
<path d="M6.98218 37.5474L6.74524 37.7844L6.07978 37.2349C5.57565 36.8265 5.47987 36.7459 5.43954 36.7106C4.82449 36.1964 4.24978 36.0048 3.63474 36.1006C3.29193 36.156 3.05499 36.3022 2.9592 36.5241C2.90879 36.645 2.89871 36.756 2.92896 36.8669C2.98441 37.0887 3.20119 37.2651 3.47846 37.3055C3.70028 37.3559 3.94226 37.3559 4.16408 37.3055C4.34053 37.2651 4.50689 37.1996 4.66317 37.1088L5.04127 38.0213C4.83458 38.1222 4.61276 38.1927 4.38086 38.223C4.14896 38.2583 3.90193 38.2583 3.67003 38.223C3.46334 38.1877 2.90879 38.102 2.49036 37.6684C2.11226 37.2803 1.83499 36.6047 2.05681 35.9796C2.40466 35.0167 3.63978 34.936 3.65491 34.936C3.70532 34.936 3.75573 34.936 3.80615 34.936C3.99268 34.936 4.17416 34.9562 4.35565 35.0016C4.72367 35.0873 5.10681 35.294 5.50003 35.6166C6.07978 36.0955 6.59904 36.761 6.99731 37.5474H6.98218Z" fill="#FFF7E9"/>
<path d="M22.7415 25.8568H19.147L19.4394 26.8096L20.2309 26.8499C20.2712 26.8499 20.3065 26.8852 20.3065 26.9255C20.3065 27.107 20.3065 27.2885 20.3065 27.475C20.3065 27.9086 20.3166 28.3623 20.2863 28.7959C20.2611 29.1538 20.1502 29.4966 19.9788 29.7285C19.9536 29.7689 19.9234 29.8092 19.8931 29.8495C19.5604 30.2629 19.1268 30.5503 18.6328 30.6864C18.0681 30.8427 17.5993 30.7267 17.3674 30.6713C17.2414 30.641 17.1254 30.6007 17.0095 30.5553C16.9843 30.5452 16.9641 30.52 16.9641 30.4898C16.9641 30.4595 16.9742 30.4343 17.0044 30.4192C17.5086 30.157 18.2043 29.6832 18.6429 28.9421C18.9252 28.4531 18.9605 28.08 18.9655 27.9439C18.9655 27.7221 18.9201 27.4902 18.8294 27.2633C18.4009 26.2097 17.1859 25.4686 16.0718 25.5896C15.4769 25.6551 15.0938 25.9022 14.9173 26.3559C14.7207 26.865 14.8165 27.3591 15.1845 27.7574C15.3862 27.9691 15.6584 28.1405 15.9205 28.3018L16.0516 28.3825C16.1474 28.4379 16.2583 28.4783 16.4045 28.5236C16.4852 28.5489 16.5759 28.5741 16.6717 28.6093C16.6969 28.6194 16.7171 28.6446 16.7221 28.6749C16.7221 28.7051 16.707 28.7354 16.6818 28.7505L15.0736 29.6075C15.2551 30.3436 15.7693 30.9737 16.5255 31.3972C17.5791 31.987 18.9504 32.0828 20.1905 31.6594C20.2158 31.6493 20.241 31.6543 20.2611 31.6694C20.2813 31.6846 20.2914 31.7098 20.2914 31.735C20.2712 32.0677 20.2611 32.4156 20.2561 32.7584V32.9449L20.5283 33.0104L21.9248 33.2877V26.8852C21.9248 26.8449 21.96 26.8096 22.0004 26.8096H22.9683L22.7263 25.8618L22.7415 25.8568ZM16.3894 27.0516C16.3894 26.6987 16.5658 26.4617 16.8683 26.366C17.0599 26.3055 17.2061 26.3105 17.317 26.376C17.4279 26.4466 17.4985 26.5727 17.5287 26.7743C17.6195 27.2936 17.4934 27.7624 17.1557 28.2161C17.1405 28.2363 17.1153 28.2464 17.0952 28.2464C17.08 28.2464 17.0649 28.2413 17.0498 28.2312C16.5961 27.9187 16.3843 27.5305 16.3894 27.0516Z" fill="#FFF7E9"/>
</svg>
